<svg width="82" height="82" viewBox="0 0 82 82" fill="none" xmlns="http://www.w3.org/2000/svg">
<path d="M63.1669 35.7082C58.5837 40.5462 25.8276 42.2975 23.6312 31.8044C21.4348 21.3113 37.4013 14.7835 53.16 17.4046C68.9186 20.0257 67.5598 31.0722 63.1669 35.7082Z" fill="#8FA7ED"/>
<path d="M19.0354 17.5714H27.8211C31.8596 17.5714 35.1426 20.8573 35.1426 24.8929V33.6786C35.1426 37.7141 31.8596 41 27.8211 41H19.0354C14.9969 41 11.714 37.7141 11.714 33.6786V24.8929C11.714 20.8573 14.9969 17.5714 19.0354 17.5714ZM27.8211 38.0714C30.2431 38.0714 32.214 36.1005 32.214 33.6786V24.8929C32.214 22.4709 30.2431 20.5 27.8211 20.5H19.0354C16.6135 20.5 14.6426 22.4709 14.6426 24.8929V33.6786C14.6426 36.1005 16.6135 38.0714 19.0354 38.0714H27.8211Z" fill="black"/>
<path d="M33.6783 32.2144C34.4866 32.2144 35.1426 32.8704 35.1426 33.6787V48.3216C35.1426 57.2039 27.9149 64.4287 19.0354 64.4287H13.1783C12.37 64.4287 11.714 63.7727 11.714 62.9644C11.714 62.1561 12.37 61.5001 13.1783 61.5001H19.0354C26.3012 61.5001 32.214 55.5874 32.214 48.3216V33.6787C32.214 32.8704 32.87 32.2144 33.6783 32.2144Z" fill="black"/>
<path d="M54.178 17.5714H62.9637C67.0022 17.5714 70.2852 20.8573 70.2852 24.8929V33.6786C70.2852 37.7141 67.0022 41 62.9637 41H54.178C50.1395 41 46.8566 37.7141 46.8566 33.6786V24.8929C46.8566 20.8573 50.1395 17.5714 54.178 17.5714ZM62.9637 38.0714C65.3857 38.0714 67.3566 36.1005 67.3566 33.6786V24.8929C67.3566 22.4709 65.3857 20.5 62.9637 20.5H54.178C51.7561 20.5 49.7852 22.4709 49.7852 24.8929V33.6786C49.7852 36.1005 51.7561 38.0714 54.178 38.0714H62.9637Z" fill="black"/>
<path d="M68.8209 32.2144C69.6292 32.2144 70.2852 32.8704 70.2852 33.6787V48.3216C70.2852 57.2039 63.0574 64.4287 54.178 64.4287H48.3209C47.5126 64.4287 46.8566 63.7727 46.8566 62.9644C46.8566 62.1561 47.5126 61.5001 48.3209 61.5001H54.178C61.4438 61.5001 67.3566 55.5874 67.3566 48.3216V33.6787C67.3566 32.8704 68.0126 32.2144 68.8209 32.2144Z" fill="black"/>
</svg>
