<svg width="24" height="24" viewBox="0 0 24 24" fill="none" xmlns="http://www.w3.org/2000/svg">
<path d="M13.233 0C14.5835 0.00223208 15.2679 0.00938435 15.8593 0.0269889L16.0922 0.0345972C16.3613 0.0441616 16.6267 0.0561618 16.9468 0.0711624C18.2237 0.130168 19.0948 0.332171 19.8599 0.629181C20.6508 0.934196 21.3189 1.34621 21.9859 2.01324C22.6519 2.68026 23.064 3.35027 23.37 4.1393C23.6659 4.90333 23.868 5.77536 23.928 7.0524C23.9423 7.37241 23.9538 7.63786 23.9633 7.90696L23.9708 8.13988C23.9884 8.73118 23.9964 9.41568 23.9989 10.7662L23.9999 11.661C24 11.7703 24 11.8831 24 11.9995L23.9999 12.3381L23.9992 13.2329C23.9969 14.5835 23.9898 15.268 23.9722 15.8592L23.9645 16.0922C23.955 16.3613 23.943 16.6268 23.928 16.9467C23.869 18.2238 23.6659 19.0948 23.37 19.8598C23.0649 20.6509 22.6519 21.3189 21.9859 21.9859C21.3189 22.6519 20.6478 23.0639 19.8599 23.3699C19.0948 23.666 18.2237 23.8679 16.9468 23.9279C16.6267 23.9422 16.3613 23.9539 16.0922 23.9632L15.8593 23.9708C15.2679 23.9884 14.5835 23.9963 13.233 23.999L12.3381 23.9999C12.2288 23.9999 12.116 23.9999 11.9996 23.9999H11.6611L10.7662 23.9991C9.41566 23.9969 8.73118 23.9897 8.13986 23.9721L7.90696 23.9645C7.63785 23.9549 7.3724 23.9429 7.0524 23.9279C5.77535 23.869 4.90532 23.666 4.1393 23.3699C3.34927 23.065 2.68024 22.6519 2.01322 21.9859C1.34621 21.3189 0.935192 20.6479 0.629182 19.8598C0.332171 19.0948 0.131165 18.2238 0.0711626 16.9467C0.0569062 16.6268 0.0452776 16.3613 0.0358573 16.0922L0.0283091 15.8592C0.0107525 15.268 0.00274831 14.5835 0.000156217 13.2329L0 10.7662C0.00223208 9.41568 0.00937233 8.73118 0.0269769 8.13988L0.0345972 7.90696C0.0441616 7.63786 0.0561621 7.37241 0.0711626 7.0524C0.130157 5.77436 0.332171 4.90433 0.629182 4.1393C0.934184 3.34928 1.34621 2.68026 2.01322 2.01324C2.68024 1.34621 3.35027 0.935192 4.1393 0.629181C4.90433 0.332171 5.77436 0.131164 7.0524 0.0711624C7.3724 0.0569179 7.63785 0.0452896 7.90696 0.0358693L8.13986 0.0283208C8.73118 0.0107522 9.41566 0.00274802 10.7662 0.000155931L13.233 0ZM11.9996 5.99936C8.68398 5.99936 5.99936 8.68689 5.99936 11.9995C5.99936 15.3151 8.68689 17.9997 11.9996 17.9997C15.3152 17.9997 17.9998 15.3122 17.9998 11.9995C17.9998 8.68397 15.3122 5.99936 11.9996 5.99936ZM11.9996 8.39945C13.9879 8.39945 15.5997 10.0107 15.5997 11.9995C15.5997 13.9879 13.9884 15.5997 11.9996 15.5997C10.0112 15.5997 8.39945 13.9885 8.39945 11.9995C8.39945 10.0112 10.0106 8.39945 11.9996 8.39945ZM18.2998 4.1993C17.4726 4.1993 16.7998 4.87122 16.7998 5.69833C16.7998 6.52546 17.4717 7.19841 18.2998 7.19841C19.1269 7.19841 19.7999 6.52651 19.7999 5.69833C19.7999 4.87122 19.1258 4.19827 18.2998 4.1993Z" fill="#262626"/>
</svg>
