<svg width="24" height="24" viewBox="0 0 24 24" fill="none" xmlns="http://www.w3.org/2000/svg">
<path fill-rule="evenodd" clip-rule="evenodd" d="M20.1279 4.26981C18.0229 2.16237 15.2234 1.00123 12.241 1C6.09556 1 1.09402 6.0014 1.09156 12.1485C1.09072 14.1136 1.60403 16.0317 2.57976 17.7226L0.998047 23.5L6.90855 21.9495C8.53713 22.8379 10.3706 23.3061 12.2365 23.3066H12.2412C18.386 23.3066 23.388 18.3048 23.3904 12.1574C23.3916 9.17822 22.233 6.37715 20.1279 4.26981ZM12.241 21.4237H12.2371C10.5744 21.423 8.9436 20.9761 7.52058 20.132L7.18238 19.931L3.67498 20.8511L4.61112 17.4315L4.39069 17.0809C3.46306 15.6054 2.97319 13.9001 2.97404 12.1492C2.97597 7.03984 7.1332 2.88304 12.2447 2.88304C14.7199 2.88385 17.0467 3.84899 18.7963 5.60061C20.5458 7.35224 21.5088 9.68053 21.508 12.1567C21.5058 17.2664 17.3489 21.4237 12.241 21.4237ZM17.3241 14.4832C17.0456 14.3437 15.6759 13.67 15.4204 13.5769C15.1653 13.4839 14.9793 13.4376 14.7938 13.7164C14.608 13.9951 14.0742 14.6227 13.9116 14.8085C13.749 14.9945 13.5867 15.0178 13.308 14.8783C13.0294 14.7389 12.1318 14.4446 11.0677 13.4955C10.2396 12.7568 9.68051 11.8446 9.51791 11.5658C9.3556 11.2867 9.51651 11.1505 9.64012 10.9972C9.94169 10.6228 10.2437 10.2301 10.3365 10.0443C10.4295 9.85835 10.3829 9.69565 10.3132 9.55625C10.2437 9.41686 9.68656 8.04562 9.45446 7.48766C9.22816 6.94467 8.99866 7.01797 8.82755 7.0095C8.66523 7.00138 8.47943 6.99973 8.29363 6.99973C8.10794 6.99973 7.80609 7.06934 7.55068 7.34841C7.29537 7.62734 6.57579 8.30121 6.57579 9.67244C6.57579 11.0437 7.57402 12.3683 7.71327 12.5543C7.85249 12.7402 9.67777 15.5541 12.4723 16.7607C13.1369 17.048 13.6558 17.2192 14.0605 17.3476C14.7279 17.5596 15.335 17.5297 15.8151 17.458C16.3504 17.378 17.4632 16.784 17.6956 16.1333C17.9277 15.4826 17.9277 14.9249 17.8579 14.8085C17.7884 14.6924 17.6026 14.6227 17.3241 14.4832Z" fill="#262626"/>
</svg>
