<svg width="24" height="24" viewBox="0 0 24 24" fill="none" xmlns="http://www.w3.org/2000/svg">
<g clip-path="url(#clip0_4155_17096)">
<path d="M4.89573 23.3285C4.79973 23.3285 4.70373 23.2805 4.60773 23.2325C4.46373 23.1365 4.36773 22.8965 4.41573 22.7045L6.52773 14.8325L0.191735 9.69647C-0.000265488 9.60047 -0.0482655 9.36047 -0.000265496 9.16847C0.0477345 8.97647 0.239734 8.83247 0.431734 8.83247L8.59173 8.40047L11.5197 0.768469C11.6157 0.624469 11.8077 0.480469 11.9997 0.480469C12.1917 0.480469 12.3837 0.624469 12.4317 0.768469L15.3597 8.40047L23.5197 8.83247C23.7117 8.83247 23.9037 8.97647 23.9517 9.16847C23.9997 9.36047 23.9517 9.55247 23.8077 9.69647L17.4717 14.8325L19.5837 22.7045C19.6317 22.8965 19.5837 23.0885 19.3917 23.2325C19.2477 23.3285 19.0077 23.3765 18.8637 23.2325L11.9997 18.8165L5.13573 23.2325C5.03973 23.3285 4.99173 23.3285 4.89573 23.3285Z" fill="black"/>
</g>
<defs>
<clipPath id="clip0_4155_17096">
<rect width="24" height="24" fill="white"/>
</clipPath>
</defs>
</svg>
