<svg width="24" height="24" viewBox="0 0 24 24" fill="none" xmlns="http://www.w3.org/2000/svg">
<path fill-rule="evenodd" clip-rule="evenodd" d="M4.36364 0C1.95367 0 0 1.95367 0 4.36364V19.6364C0 22.0463 1.95367 24 4.36364 24H19.6364C22.0463 24 24 22.0463 24 19.6364V4.36364C24 1.95367 22.0463 0 19.6364 0H4.36364ZM3.99896 3.81818C3.80765 3.88939 3.64624 4.03101 3.55203 4.21996C3.41361 4.4976 3.44412 4.82966 3.63083 5.07743L9.75539 13.205L3.30167 20.1257C3.28475 20.144 3.26882 20.1626 3.25387 20.1818H5.48686L10.7554 14.532L14.8063 19.9078C14.9013 20.0338 15.0291 20.1279 15.1732 20.1818H19.9976C20.1883 20.1105 20.3493 19.9691 20.4432 19.7805C20.5816 19.5028 20.5512 19.1708 20.3644 18.923L14.2399 10.7954L20.7461 3.81818H18.5087L13.2398 9.46835L9.18895 4.09263C9.09372 3.96627 8.96535 3.87197 8.82076 3.81818H3.99896ZM15.8677 18.5973L5.92527 5.40321H8.12758L18.07 18.5973H15.8677Z" fill="#262626"/>
</svg>
