<svg width="82" height="82" viewBox="0 0 82 82" fill="none" xmlns="http://www.w3.org/2000/svg">
<path d="M18.8331 46.2918C23.4163 41.4538 56.1724 39.7025 58.3688 50.1956C60.5652 60.6887 44.5987 67.2165 28.84 64.5954C13.0814 61.9743 14.4402 50.9278 18.8331 46.2918Z" fill="#8FA7ED"/>
<path d="M62.9646 64.4286H54.1789C50.1404 64.4286 46.8574 61.1427 46.8574 57.1071V48.3214C46.8574 44.2859 50.1404 41 54.1789 41H62.9646C67.0031 41 70.286 44.2859 70.286 48.3214V57.1071C70.286 61.1427 67.0031 64.4286 62.9646 64.4286ZM54.1789 43.9286C51.7569 43.9286 49.786 45.8995 49.786 48.3214V57.1071C49.786 59.5291 51.7569 61.5 54.1789 61.5H62.9646C65.3865 61.5 67.3574 59.5291 67.3574 57.1071V48.3214C67.3574 45.8995 65.3865 43.9286 62.9646 43.9286H54.1789Z" fill="black"/>
<path d="M48.3217 49.7856C47.5134 49.7856 46.8574 49.1296 46.8574 48.3213V33.6784C46.8574 24.7961 54.0851 17.5713 62.9646 17.5713H68.8217C69.63 17.5713 70.286 18.2273 70.286 19.0356C70.286 19.8439 69.63 20.4999 68.8217 20.4999H62.9646C55.6988 20.4999 49.786 26.4126 49.786 33.6784V48.3213C49.786 49.1296 49.13 49.7856 48.3217 49.7856Z" fill="black"/>
<path d="M27.822 64.4286H19.0363C14.9978 64.4286 11.7148 61.1427 11.7148 57.1071V48.3214C11.7148 44.2859 14.9978 41 19.0363 41H27.822C31.8605 41 35.1434 44.2859 35.1434 48.3214V57.1071C35.1434 61.1427 31.8605 64.4286 27.822 64.4286ZM19.0363 43.9286C16.6143 43.9286 14.6434 45.8995 14.6434 48.3214V57.1071C14.6434 59.5291 16.6143 61.5 19.0363 61.5H27.822C30.2439 61.5 32.2148 59.5291 32.2148 57.1071V48.3214C32.2148 45.8995 30.2439 43.9286 27.822 43.9286H19.0363Z" fill="black"/>
<path d="M13.1791 49.7856C12.3708 49.7856 11.7148 49.1296 11.7148 48.3213V33.6784C11.7148 24.7961 18.9426 17.5713 27.822 17.5713H33.6791C34.4874 17.5713 35.1434 18.2273 35.1434 19.0356C35.1434 19.8439 34.4874 20.4999 33.6791 20.4999H27.822C20.5562 20.4999 14.6434 26.4126 14.6434 33.6784V48.3213C14.6434 49.1296 13.9874 49.7856 13.1791 49.7856Z" fill="black"/>
</svg>
